<svg width="33" height="32" viewBox="0 0 33 32" fill="none" xmlns="http://www.w3.org/2000/svg">
<rect x="0.107422" y="0.518555" width="32.2636" height="30.5655" rx="5.09425" fill="#BD3B41"/>
<rect x="7.07935" y="5.61279" width="20.8421" height="20.377" rx="5.09425" fill="#BD3B41"/>
<path fill-rule="evenodd" clip-rule="evenodd" d="M18.676 13.042H10.5532C10.1935 13.042 9.90186 12.7569 9.90186 12.4052C9.90186 12.0535 10.1935 11.7684 10.5532 11.7684H18.676C18.9595 10.7884 19.8811 10.0703 20.9742 10.0703C22.0674 10.0703 22.989 10.7884 23.2725 11.7684H24.4479C24.8076 11.7684 25.0992 12.0535 25.0992 12.4052C25.0992 12.7569 24.8076 13.042 24.4479 13.042H23.2725C22.989 14.022 22.0674 14.74 20.9742 14.74C19.8811 14.74 18.9595 14.022 18.676 13.042ZM19.8887 12.4052C19.8887 11.819 20.3747 11.3439 20.9742 11.3439C21.5737 11.3439 22.0597 11.819 22.0597 12.4052C22.0597 12.9913 21.5737 13.4665 20.9742 13.4665C20.3747 13.4665 19.8887 12.9913 19.8887 12.4052Z" fill="white"/>
<path fill-rule="evenodd" clip-rule="evenodd" d="M16.3251 19.8343H24.4479C24.8076 19.8343 25.0992 19.5492 25.0992 19.1975C25.0992 18.8458 24.8076 18.5607 24.4479 18.5607H16.3251C16.0416 17.5807 15.12 16.8626 14.0269 16.8626C12.9337 16.8626 12.0121 17.5807 11.7286 18.5607H10.5532C10.1935 18.5607 9.90186 18.8458 9.90186 19.1975C9.90186 19.5492 10.1935 19.8343 10.5532 19.8343H11.7286C12.0121 20.8143 12.9337 21.5324 14.0269 21.5324C15.12 21.5324 16.0416 20.8143 16.3251 19.8343ZM12.9413 19.1975C12.9413 18.6114 13.4273 18.1362 14.0269 18.1362C14.6264 18.1362 15.1124 18.6114 15.1124 19.1975C15.1124 19.7837 14.6264 20.2588 14.0269 20.2588C13.4273 20.2588 12.9413 19.7837 12.9413 19.1975Z" fill="white"/>
</svg>
