<svg width="38" height="36" viewBox="0 0 38 36" fill="none" xmlns="http://www.w3.org/2000/svg">
<rect width="38" height="36" rx="6" fill="#BE3B41"/>
<path d="M23.5715 9.14258H25.7143C26.0932 9.14258 26.4566 9.29309 26.7245 9.56099C26.9923 9.82891 27.1429 10.1923 27.1429 10.5711V24.8569C27.1429 25.2357 26.9923 25.5991 26.7245 25.867C26.4566 26.1349 26.0932 26.2854 25.7143 26.2854H14.2857C13.9069 26.2854 13.5435 26.1349 13.2756 25.867C13.0077 25.5991 12.8572 25.2357 12.8572 24.8569V10.5711C12.8572 10.1923 13.0077 9.82891 13.2756 9.56099C13.5435 9.29309 13.9069 9.14258 14.2857 9.14258H16.4286" stroke="white" stroke-linecap="round" stroke-linejoin="round"/>
<path d="M22.143 7.71387H17.8573C17.0683 7.71387 16.4287 8.35346 16.4287 9.14244V9.85672C16.4287 10.6457 17.0683 11.2853 17.8573 11.2853H22.143C22.932 11.2853 23.5716 10.6457 23.5716 9.85672V9.14244C23.5716 8.35346 22.932 7.71387 22.143 7.71387Z" stroke="white" stroke-linecap="round" stroke-linejoin="round"/>
<path d="M15.7798 15.8609C15.7798 16.8471 16.5793 17.6466 17.5655 17.6466C17.8148 17.6466 18.0522 17.5955 18.2678 17.5032C18.9049 17.2305 19.3512 16.5978 19.3512 15.8609C19.3512 14.8747 18.5517 14.0752 17.5655 14.0752C16.5793 14.0752 15.7798 14.8747 15.7798 15.8609Z" stroke="white" stroke-linecap="round" stroke-linejoin="round"/>
<path d="M20.646 19.6182L24.2174 23.1896" stroke="white" stroke-linecap="round" stroke-linejoin="round"/>
<path d="M24.2199 19.6182L20.6484 23.1896" stroke="white" stroke-linecap="round" stroke-linejoin="round"/>
</svg>
