<svg width="26" height="26" viewBox="0 0 26 26" fill="none" xmlns="http://www.w3.org/2000/svg">
<circle cx="13" cy="13" r="12.25" stroke="#BE3B41" stroke-width="1.5"/>
<path d="M13 5.45317V0.650391C14.6218 0.650391 16.2278 0.969833 17.7261 1.59048C18.4702 1.89866 19.1804 2.2781 19.8474 2.72246M13 5.45317L16.8627 1.59048M13 5.45317V9.56983M13 9.56983V13.0004H13.6861M13 9.56983L19.8474 2.72246M19.8474 2.72246C20.5236 3.17299 21.1554 3.69026 21.7328 4.26762C22.8796 5.41443 23.7893 6.77588 24.4099 8.27425C25.0306 9.77262 25.35 11.3786 25.35 13.0004H21.45M13.6861 13.0004L21.7328 4.95373M13.6861 13.0004L17.55 13.0004M17.55 13.0004L23.4 7.15039M17.55 13.0004L21.45 13.0004M21.45 13.0004L24.7 9.75039" stroke="#BE3B41"/>
</svg>
