<svg width="38" height="36" viewBox="0 0 38 36" fill="none" xmlns="http://www.w3.org/2000/svg">
<rect width="38" height="36" rx="6" fill="#BE3B41"/>
<path d="M14 23C14 22.4477 14.4477 22 15 22C15.5523 22 16 22.4477 16 23V27H14V23Z" fill="white"/>
<path d="M10 25C10 24.4477 10.4477 24 11 24C11.5523 24 12 24.4477 12 25V27H10V25Z" fill="white"/>
<path d="M18 19C18 18.4477 18.4477 18 19 18C19.5523 18 20 18.4477 20 19V27H18V19Z" fill="white"/>
<path d="M22 17C22 16.4477 22.4477 16 23 16C23.5523 16 24 16.4477 24 17V27H22V17Z" fill="white"/>
<path d="M26 12C26 11.4477 26.4477 11 27 11C27.5523 11 28 11.4477 28 12V27H26V12Z" fill="white"/>
</svg>
