<svg width="36" height="36" viewBox="0 0 36 36" fill="none"
    xmlns="http://www.w3.org/2000/svg">
    <rect x="35.5" y="0.5" width="35" height="35" rx="5.5" transform="rotate(90 35.5 0.5)" fill="white" stroke="black"/>
    <path d="M19.0526 13.7627C19.2997 13.7627 19.5 13.963 19.5 14.2101C19.5 14.4571 19.2997 14.6574 19.0526 14.6574H15.5V13.7627H19.0526Z" fill="black" stroke="black" stroke-width="0.947368"/>
    <path d="M17.0526 9.97266C17.2997 9.97266 17.5 10.1729 17.5 10.42C17.5 10.6671 17.2997 10.8674 17.0526 10.8674H15.5V9.97266H17.0526Z" fill="black" stroke="black" stroke-width="0.947368"/>
    <path d="M23.0526 17.5518C23.2997 17.5518 23.5 17.7521 23.5 17.9991C23.5 18.2462 23.2997 18.4465 23.0526 18.4465H15.5V17.5518H23.0526Z" fill="black" stroke="black" stroke-width="0.947368"/>
    <path d="M25.0526 21.3408C25.2997 21.3408 25.5 21.5411 25.5 21.7882C25.5 22.0353 25.2997 22.2356 25.0526 22.2356H15.5V21.3408H25.0526Z" fill="black" stroke="black" stroke-width="0.947368"/>
    <path d="M30.0526 25.1309C30.2997 25.1309 30.5 25.3312 30.5 25.5782C30.5 25.8253 30.2997 26.0256 30.0526 26.0256H15.5V25.1309H30.0526Z" fill="black" stroke="black" stroke-width="0.947368"/>
    <path d="M7.75024 10.5166V26.5267" stroke="black" stroke-width="2.08134" stroke-linejoin="round"/>
    <path d="M4 13.0986C5.46447 11.8885 6.28553 11.21 7.75 9.99991L11.5 13.0986" stroke="black" stroke-width="2.08134" stroke-linejoin="round"/>
</svg>